<?xml version="1.0" standalone="no"?>
<!DOCTYPE svg PUBLIC "-//W3C//DTD SVG 20010904//EN"
 "http://www.w3.org/TR/2001/REC-SVG-20010904/DTD/svg10.dtd">
<svg version="1.0" xmlns="http://www.w3.org/2000/svg"
 width="512.000000pt" height="512.000000pt" viewBox="0 0 512.000000 512.000000"
 preserveAspectRatio="xMidYMid meet">
<metadata>
Created by potrace 1.11, written by Peter Selinger 2001-2013
</metadata>
<g transform="translate(0.000000,512.000000) scale(0.100000,-0.100000)"
fill="#000000" stroke="none">
<path d="M1711 4408 c76 -227 142 -421 148 -430 6 -10 11 -24 11 -32 0 -7 9
-35 20 -62 10 -27 51 -137 90 -244 73 -200 145 -389 160 -425 5 -11 45 -110
89 -220 136 -341 337 -796 423 -958 8 -15 5 -17 -14 -13 -13 2 -43 7 -68 12
-25 4 -48 7 -52 6 -4 -1 -14 10 -22 26 -19 37 -233 554 -351 848 -53 132 -100
248 -105 259 -5 11 -27 67 -50 125 -22 58 -45 114 -50 125 -4 11 -27 72 -50
135 -23 63 -46 126 -52 140 -12 30 -189 531 -193 545 -1 6 -5 17 -8 25 -4 8
-32 92 -63 185 -31 94 -58 173 -60 177 -3 4 -85 -152 -183 -345 -98 -194 -194
-381 -213 -417 -19 -36 -63 -119 -98 -185 -34 -66 -70 -133 -80 -150 -9 -16
-34 -61 -55 -100 -83 -154 -160 -294 -206 -373 -27 -45 -49 -85 -49 -87 0 -7
-322 -559 -330 -565 -3 -3 -19 -27 -35 -55 -16 -27 -70 -116 -122 -196 -51
-81 -95 -153 -98 -162 -5 -12 5 -17 47 -22 72 -11 85 -12 144 -19 28 -4 59 -8
70 -10 10 -2 51 -7 89 -11 39 -4 71 -8 73 -10 3 -3 11 -39 16 -80 2 -16 18
-118 36 -225 17 -107 32 -206 34 -220 12 -80 27 -175 40 -250 8 -47 18 -107
22 -135 3 -27 7 -57 9 -65 1 -8 6 -35 10 -60 4 -25 9 -52 10 -60 1 -8 6 -35
10 -60 3 -25 9 -58 11 -75 3 -16 7 -43 9 -60 3 -16 11 -68 19 -115 8 -47 18
-105 21 -130 4 -25 9 -52 10 -60 2 -8 4 -23 4 -33 1 -16 18 -17 246 -17 257 1
252 0 247 41 -1 4 -4 38 -7 75 -5 65 -7 85 -20 195 -3 26 -7 64 -10 85 -2 22
-6 55 -9 74 -3 19 -8 58 -11 85 -3 28 -8 59 -10 70 -2 11 -7 43 -10 70 -8 65
-24 182 -31 220 -3 17 -7 44 -8 60 -3 26 -11 77 -21 135 -1 8 -6 35 -10 60 -4
25 -9 54 -11 65 -2 10 -6 37 -9 60 -8 52 -12 76 -25 155 -22 129 -22 130 -8
130 7 1 117 3 243 5 507 8 804 9 811 3 3 -4 1 -29 -5 -55 -6 -26 -13 -64 -16
-83 -3 -19 -10 -61 -16 -92 -5 -32 -12 -79 -15 -105 -2 -27 -7 -56 -10 -66 -3
-11 -7 -40 -9 -65 -3 -44 -12 -119 -20 -170 -2 -12 -7 -57 -10 -100 -3 -42 -8
-93 -10 -112 -3 -19 -7 -78 -11 -130 -3 -52 -7 -108 -9 -125 -6 -44 -18 -308
-19 -400 l-1 -80 1092 -2 1093 -3 6 28 c63 263 237 735 410 1110 20 42 54 118
77 167 50 111 53 114 80 109 12 -2 38 -6 57 -8 97 -13 187 -27 200 -31 8 -2
40 -7 70 -10 30 -4 58 -9 63 -12 4 -2 7 -2 7 1 0 2 -38 34 -85 70 -46 36 -99
78 -117 93 -62 53 -305 298 -359 363 -30 35 -59 70 -66 78 -29 31 -186 236
-250 327 -142 201 -389 609 -446 737 -8 18 -24 32 -47 39 -19 6 -44 14 -55 19
-11 4 -53 20 -92 35 l-73 27 5 250 c3 137 6 253 6 256 6 40 -4 53 -53 74 -29
12 -113 53 -186 91 -79 40 -138 65 -145 60 -7 -4 -14 -8 -17 -9 -3 0 -26 -10
-52 -22 -27 -12 -68 -31 -93 -42 -25 -10 -46 -23 -46 -27 -5 -32 -8 -62 -14
-163 -4 -63 -10 -118 -14 -123 -8 -8 -210 127 -336 225 -5 4 -65 51 -133 103
-132 103 -368 298 -451 375 -15 14 -65 59 -111 100 -46 41 -124 113 -173 160
-49 47 -92 86 -97 88 -4 1 55 -183 131 -410z m1804 -2987 c22 -5 60 -12 85
-15 25 -3 72 -11 105 -17 33 -6 69 -12 80 -14 95 -12 131 -17 203 -29 45 -7
85 -15 87 -18 3 -3 -13 -45 -34 -95 -58 -133 -136 -346 -162 -440 l-22 -82
-96 4 c-53 2 -186 7 -296 10 -110 4 -203 9 -207 11 -4 3 -5 13 -3 23 2 10 6
42 10 72 16 131 99 441 151 564 16 38 28 41 99 26z"/>
</g>
</svg>
